# AST/ASF file generated using VICON BodyLanguage
# -----------------------------------------------
:version 1.10
:name VICON
:units
  mass 1.0
  length 0.45
  angle deg
:documentation
   .ast/.asf automatically generated from VICON data using
   VICON BodyBuilder and BodyLanguage model FoxedUp or BRILLIANT.MOD
:root
   order TX TY TZ RX RY RZ
   axis XYZ
   position 0 0 0  
   orientation 0 0 0 
:bonedata
  begin
     id 1 
     name lhipjoint
     direction 0.528046 -0.759594 0.379717 
     length 2.39752 
     axis 0 0 0  XYZ
  end
  begin
     id 2 
     name lfemur
     direction 0.34202 -0.939693 0  
     length 7.31175  
     axis 0 0 20  XYZ
    dof rx ry rz
    limits (-160.0 20.0)
           (-70.0 70.0)
           (-60.0 70.0)
  end
  begin
     id 3 
     name ltibia
     direction 0.34202 -0.939693 0   
     length 7.52482   
     axis 0 0 20   XYZ
    dof rx
    limits (-10.0 170.0)
  end
  begin
     id 4 
     name lfoot
     direction 0.0675379 -0.185559 0.980309   
     length 2.00961   
     axis -90 7.62852e-016 20   XYZ
    dof rx rz
    limits (-45.0 90.0)
           (-70.0 20.0)
  end
  begin
     id 5 
     name ltoes
     direction 1.5352e-011 -4.22286e-011 1   
     length 1.01383   
     axis -90 7.62852e-016 20   XYZ
    dof rx
    limits (-90.0 20.0)
  end
  begin
     id 6 
     name rhipjoint
     direction -0.510274 -0.769251 0.384544   
     length 2.36742  
     axis 0 0 0  XYZ 
  end
  begin
     id 7 
     name rfemur
     direction -0.34202 -0.939693 0   
     length 7.45325   
     axis 0 0 -20   XYZ
    dof rx ry rz
    limits (-160.0 20.0)
           (-70.0 70.0)
           (-70.0 60.0)
  end
  begin
     id 8 
     name rtibia
     direction -0.34202 -0.939693 0   
     length 7.49587   
     axis 0 0 -20   XYZ
    dof rx
    limits (-10.0 170.0)
 end
 begin
     id 9 
     name rfoot
     direction -0.106475 -0.292536 0.950308   
     length 2.20898  
     axis -90 -7.62852e-016 -20   XYZ
    dof rx rz
    limits (-45.0 90.0)
           (-20.0 70.0)
  end
  begin
     id 10 
     name rtoes
     direction -1.53597e-011 -4.22023e-011 1   
     length 1.10065   
     axis -90 -7.62852e-016 -20   XYZ
    dof rx
    limits (-90.0 20.0)
  end
  begin
     id 11 
     name lowerback
     direction 0.0260024 0.998026 -0.0571652   
     length 2.11214   
     axis 0 0 0   XYZ
    dof rx ry rz
    limits (-20.0 45.0)
           (-30.0 30.0)
           (-30.0 30.0)
  end
  begin
     id 12 
     name upperback
     direction 0.0216202 0.999542 -0.0211766   
     length 2.11689   
     axis 0 0 0   XYZ
    dof rx ry rz
    limits (-20.0 45.0)
           (-30.0 30.0)
           (-30.0 30.0)
  end
  begin
     id 13 
     name thorax
     direction 0.00883312 0.999944 0.00589057   
     length 2.11821   
     axis 0 0 0   XYZ
    dof rx ry rz
    limits (-20.0 45.0)
           (-30.0 30.0)
           (-30.0 30.0)
  end
  begin
     id 14 
     name lowerneck
     direction -0.059386 0.994433 0.0870401   
     length 1.81176   
     axis 0 0 0   XYZ
    dof rx ry rz
    limits (-20.0 45.0)
           (-30.0 30.0)
           (-30.0 30.0)
  end
  begin
     id 15 
     name upperneck
     direction 0.0506457 0.97328 -0.223967   
     length 1.82382   
     axis 0 0 0   XYZ
    dof rx ry rz
    limits (-20.0 45.0)
           (-30.0 30.0)
           (-30.0 30.0)
  end
  begin
     id 16
     name head
     direction 0.0205902 0.996147 -0.0852487  
     length 1.84805  
     axis 0 0 0   XYZ
    dof rx ry rz
    limits (-20.0 45.0)
           (-30.0 30.0)
           (-30.0 30.0)
  end
  begin
     id 17 
     name lclavicle
     direction 0.949493 0.303881 -0.0782325  
     length 3.60584  
     axis 0 0 0   XYZ
    dof ry rz
    limits (-20.0 10.0)
           (0.0 20.0)
  end
  begin
     id 18 
     name lhumerus
     direction 1 -4.48965e-011 1.48782e-027   
     length 4.95681   
     axis 180 -30 -90   XYZ
    dof rx ry rz
    limits (-60.0 90.0)
           (-90.0 90.0)
           (-90.0 90.0)
  end
  begin
     id 19
     name lradius
     direction 1 -4.48952e-011 2.06528e-027   
     length 3.40915   
     axis 180 -30 -90   XYZ
    dof rx
    limits (-10.0 170.0)
  end
  begin
     id 20
     name lwrist
     direction 1 -4.48964e-011 1.28021e-027   
     length 1.70457   
     axis -1.61767e-015 90 90   XYZ
    dof ry
    limits (-180.0 0.0)
 end
  begin
     id 21 
     name lhand
     direction 1 -4.49094e-011 2.54887e-027   
     length 0.616403   
     axis -1.63363e-015 90 90   XYZ
    dof rx rz
    limits (-90.0 90.0)
           (-45.0 45.0)
  end
  begin
     id 22 
     name lfingers
     direction 1 -4.49002e-011 5.11407e-027   
     length 0.49696   
     axis -3.26723e-015 90 90   XYZ
    dof rx
    limits (0.0 90.0)
  end
  begin
     id 23
     name lthumb
     direction 0.707107 -6.34998e-011 0.707107   
     length 0.713539   
     axis -90 45 -2.25915e-014   XYZ
    dof rx rz
    limits (-45.0 45.0)
           (-45.0 45.0)
  end
  begin
     id 24 
     name rclavicle
     direction -0.937751 0.334612 -0.0930482   
     length 3.46287  
     axis 0 0 0   XYZ 
    dof ry rz
    limits (-10.0 20.0)
           (-20.0 0.0)
  end
  begin
     id 25 
     name rhumerus
     direction -1 -4.48962e-011 3.59972e-027  
     length 5.352   
     axis 180 30 90   XYZ
    dof rx ry rz
    limits (-90.0 60.0)
           (-90.0 90.0)
           (-90.0 90.0)
  end
  begin
     id 26 
     name rradius
     direction -1 -4.48987e-011 -3.76925e-027   
     length 3.43721   
     axis 180 30 90   XYZ
    dof rx
    limits (-10.0 170.0)
  end
  begin
     id 27 
     name rwrist
     direction -1 -4.48943e-011 1.28112e-027   
     length 1.7186   
     axis -1.61767e-015 -90 -90   XYZ
    dof ry
    limits (-180.0 0.0)
  end
  begin
     id 28
     name rhand
     direction -1 -4.49027e-011 2.55483e-027   
     length 0.72009   
     axis -1.63363e-015 -90 -90   XYZ
    dof rx rz
    limits (-90.0 90.0)
           (-45.0 45.0)
  end
  begin
     id 29
     name rfingers
     direction -1 -4.48827e-011 5.14506e-027   
     length 0.580555   
     axis -3.26723e-015 -90 -90   XYZ
    dof rx
    limits (0.0 90.0)
  end
  begin
     id 30
     name rthumb
     direction -0.707107 -6.34936e-011 0.707107   
     length 0.833564   
     axis -90 -45 2.25915e-014   XYZ
    dof rx rz
    limits (-45.0 45.0)
           (-45.0 45.0)
  end
:hierarchy
  begin
    root lhipjoint rhipjoint lowerback
    lhipjoint lfemur
    lfemur ltibia
    ltibia lfoot
    lfoot ltoes
    rhipjoint rfemur
    rfemur rtibia
    rtibia rfoot
    rfoot rtoes
    lowerback upperback
    upperback thorax
    thorax lowerneck lclavicle rclavicle
    lowerneck upperneck
    upperneck head
    lclavicle lhumerus
    lhumerus lradius
    lradius lwrist
    lwrist lhand lthumb
    lhand lfingers
    rclavicle rhumerus
    rhumerus rradius
    rradius rwrist
    rwrist rhand rthumb
    rhand rfingers
  end

#!OML:ASF H:\Terrain\Patient Classification 1\Terrain2\Thursday\justin.ASF
:FULLY-SPECIFIED
:DEGREES
1
root -1.5186 20.3162 -10.5918 -104.62 83.4634 -104.881
lowerback 2.60588 0.398048 3.54953
upperback -0.968028 0.780381 2.98317
thorax -2.45433 0.380219 1.04012
lowerneck -16.5145 -2.1661 -8.20482
upperneck 29.1642 -1.1128 3.55462
head 12.4977 -0.710724 2.64658
rclavicle 1.68812e-015 -9.93923e-016
rhumerus -36.1666 -6.64711 -82.1935
rradius 25.2225
rwrist -9.512
rhand -18.4986 14.0571
rfingers 7.12502
rthumb 7.78915 -15.7795
lclavicle 1.68812e-015 -9.93923e-016
lhumerus -33.8251 4.74214 85.8662
lradius 26.0953
lwrist -3.66589
lhand -18.1212 20.5133
lfingers 7.12502
lthumb 8.15335 50.336
rfemur -6.46297 -5.02504 29.1631
rtibia 31.9499
rfoot -23.5132 -3.2349
rtoes 11.8859
lfemur -8.74983 -2.01174 -13.8086
ltibia 34.2057
lfoot -19.4414 -8.14876
ltoes 8.80353
2
root -1.51524 20.3029 -10.569 -104.971 83.1432 -105.092
lowerback 2.79682 0.405188 3.77629
upperback -0.872202 0.815764 3.16641
thorax -2.46316 0.398983 1.09925
lowerneck -16.5667 -2.24029 -8.57661
upperneck 29.1956 -1.12858 3.65154
head 12.5287 -0.746425 2.7463
rclavicle -7.77279e-015 7.15625e-015
rhumerus -36.047 -7.15492 -81.7657
rradius 25.0846
rwrist -8.98317
rhand -18.6782 14.763
rfingers 7.12502
rthumb 7.61576 -15.0799
lclavicle -7.77279e-015 7.15625e-015
lhumerus -33.6368 4.90707 85.853
lradius 26.331
lwrist -3.19612
lhand -18.1705 20.3989
lfingers 7.12502
lthumb 8.10576 50.2234
rfemur -6.21123 -4.8703 29.5843
rtibia 31.5969
rfoot -23.2662 -3.19383
rtoes 12.9942
lfemur -9.25512 -2.23033 -13.3971
ltibia 35.4359
lfoot -19.1028 -8.22462
ltoes 10.5381
3
root -1.5142 20.2921 -10.5542 -104.727 82.6445 -104.718
lowerback 2.98265 0.418132 4.31954
upperback -0.770265 0.871421 3.30239
thorax -2.4578 0.423478 0.932181
lowerneck -16.5904 -2.28828 -8.60833
upperneck 29.214 -1.16258 3.58429
head 12.5446 -0.773791 2.72103
rclavicle -2.55159e-015 -1.78906e-014
rhumerus -36.073 -7.05239 -81.751
rradius 25.3666
rwrist -8.98566
rhand -18.7 14.846
rfingers 7.12502
rthumb 7.59475 -14.9977
lclavicle -2.55159e-015 -1.78906e-014
lhumerus -33.5177 4.75015 85.8583
lradius 26.7087
lwrist -2.90654
lhand -17.9149 20.4544
lfingers 7.12502
lthumb 8.35249 50.2693
rfemur -5.88813 -4.81148 30.157
rtibia 31.1164
rfoot -22.9844 -2.92666
rtoes 13.6106
lfemur -9.96132 -2.41248 -12.7888
ltibia 37.0438
lfoot -18.8559 -8.42722
ltoes 12.4214
4
root -1.51068 20.2838 -10.5331 -104.061 81.9296 -103.853
lowerback 3.19438 0.456791 4.95753
upperback -0.623645 0.971649 3.50797
thorax -2.41927 0.472224 0.782032
lowerneck -16.6911 -2.36258 -8.6212
upperneck 29.2611 -1.26335 3.60847
head 12.5929 -0.817247 2.71834
rclavicle -7.32242e-015 -3.8763e-014
rhumerus -36.0662 -6.51854 -82.0209
rradius 25.7593
rwrist -9.53321
rhand -18.8878 14.2564
rfingers 7.12502
rthumb 7.41349 -15.5937
lclavicle -7.32242e-015 -3.8763e-014
lhumerus -33.2868 4.69207 85.8111
lradius 26.9703
lwrist -3.04834
lhand -17.737 20.4084
lfingers 7.12502
lthumb 8.52415 50.2163
rfemur -5.43721 -4.79384 31.0266
rtibia 30.6172
rfoot -22.798 -2.91996
rtoes 12.7013
lfemur -10.6394 -2.41073 -11.909
ltibia 38.6774
lfoot -18.6419 -8.51935
ltoes 11.901
5
root -1.50913 20.2745 -10.5084 -103.151 81.0582 -102.75
lowerback 3.46742 0.560675 5.71674
upperback -0.56376 1.18789 3.85442
thorax -2.5016 0.578528 0.703344
lowerneck -16.4556 -2.50736 -8.96504
upperneck 29.1506 -1.42111 3.7208
head 12.5176 -0.908393 2.79329
rclavicle 2.472e-014 3.12092e-014
rhumerus -36.0796 -6.38776 -81.7556
rradius 25.6905
rwrist -9.37291
rhand -19.1271 14.074
rfingers 7.12502
rthumb 7.18246 -15.7841
lclavicle 2.472e-014 3.12092e-014
lhumerus -33.1208 4.89906 85.8933
lradius 27.1161
lwrist -3.19984
lhand -17.754 20.1818
lfingers 7.12502
lthumb 8.50778 49.9904
rfemur -4.97995 -4.96379 32.0719
rtibia 30.098
rfoot -22.6032 -2.84069
rtoes 12.7087
lfemur -11.4386 -2.16784 -10.8446
ltibia 40.4803
lfoot -18.1669 -8.60827
ltoes 11.6103
6
root -1.50786 20.2749 -10.4915 -103.605 80.5864 -103.044
lowerback 3.72665 0.660811 6.20295
upperback -0.537472 1.38159 4.03981
thorax -2.61027 0.672154 0.611036
lowerneck -16.0379 -2.70787 -9.33755
upperneck 28.9753 -1.65047 3.77402
head 12.3863 -1.04111 2.83786
rclavicle 1.29839e-014 1.98785e-014
rhumerus -36.1452 -6.95707 -81.1485
rradius 25.5371
rwrist -8.54996
rhand -18.7911 14.4006
rfingers 7.12502
rthumb 7.50679 -15.4462
lclavicle 1.29839e-014 1.98785e-014
lhumerus -33.0618 4.63796 86.2009
lradius 27.3658
lwrist -2.62429
lhand -18.2589 20.1524
lfingers 7.12502
lthumb 8.02049 49.9802
rfemur -4.56523 -5.23385 32.5984
rtibia 29.6153
rfoot -22.5019 -2.64113
rtoes 14.2498
lfemur -12.3464 -1.98649 -10.278
ltibia 42.3815
lfoot -17.2796 -8.77494
ltoes 11.9806
7
root -1.50464 20.2814 -10.475 -104.685 80.3872 -104.015
lowerback 3.87633 0.639532 6.28412
upperback -0.404149 1.36811 4.1151
thorax -2.55729 0.669539 0.643086
lowerneck -16.0224 -2.80124 -9.2338
upperneck 28.9225 -1.75839 3.5769
head 12.3686 -1.10329 2.72617
rclavicle -3.05942e-015 -4.05521e-014
rhumerus -35.9283 -7.49658 -80.8525
rradius 25.4782
rwrist -8.05892
rhand -18.0692 14.3421
rfingers 7.12502
rthumb 8.20357 -15.4786
lclavicle -3.05942e-015 -4.05521e-014
lhumerus -32.8411 4.22744 86.4063
lradius 27.6403
lwrist -1.62488
lhand -19.0642 20.3888
lfingers 7.12502
lthumb 7.24318 50.2448
rfemur -4.22547 -5.36241 32.8281
rtibia 29.2019
rfoot -22.3299 -2.60957
rtoes 15.0076
lfemur -13.3901 -1.65948 -9.9973
ltibia 44.3294
lfoot -16.2811 -9.01384
ltoes 10.9191
